Coordinates
version=1
nRows=18
nColumns=22
inDegrees=yes

Units are S.I. units (second, meters, Newtons, ...)
If the header above contains a line with 'inDegrees', this indicates whether rotational values are in degrees (yes) or radians (no).

endheader
time	pelvis_tilt	pelvis_list	pelvis_rotation	pelvis_tx	pelvis_ty	pelvis_tz	hip_flexion_r	hip_adduction_r	hip_rotation_r	knee_angle_r	ankle_angle_r	subtalar_angle_r	hip_flexion_l	hip_adduction_l	hip_rotation_l	knee_angle_l	ankle_angle_l	subtalar_angle_l	lumbar_extension	lumbar_bending	lumbar_rotation
      3.72000000	      2.90014556	      9.97553211	    175.41521286	      0.09560252	      0.93266190	     -0.68376199	     -7.62285205	      6.28516883	     -8.67346711	    -17.89841607	     18.38910546	      8.32955199	     34.76466445	    -11.17230052	     -7.47925895	    -15.24503216	      6.77771294	     -6.27476991	     -2.30678926	      6.91982821	     -0.18946347
      3.73000000	      2.90272255	      9.99342638	    175.37703022	      0.08559485	      0.93114053	     -0.68311873	     -8.01327121	      6.12708416	     -8.41536655	    -18.35096231	     18.33027804	      8.86416960	     34.84813349	    -11.42321462	     -8.21669139	    -15.04680060	      7.13180362	     -6.37679815	     -2.24732028	      6.85886589	      0.11624150
      3.74000000	      2.90169317	      9.97912194	    175.34239491	      0.07535675	      0.92968171	     -0.68223799	     -8.38716460	      5.91145666	     -8.12609250	    -18.85182823	     18.23635233	      9.51688960	     34.92677004	    -11.60496867	     -8.85500660	    -15.17123653	      7.42644061	     -6.49725760	     -2.17474174	      6.76622739	      0.38672060
      3.75000000	      2.90597595	      9.93605763	    175.30643500	      0.06488236	      0.92829139	     -0.68112313	     -8.73526448	      5.64245471	     -7.81577397	    -19.39626539	     18.06284031	     10.22384704	     34.99573365	    -11.72656733	     -9.41886514	    -15.57814706	      7.59314991	     -6.63172118	     -2.07922679	      6.64466521	      0.65606738
      3.76000000	      2.92957188	      9.87404908	    175.25515288	      0.05420169	      0.92696430	     -0.67982566	     -9.03333581	      5.34095530	     -7.44046381	    -19.99847876	     17.80306989	     10.80125116	     35.05972629	    -11.81278654	     -9.95163295	    -16.21770343	      7.58732656	     -6.76103875	     -1.94976843	      6.50312011	      0.91767975
      3.77000000	      2.95559009	      9.75181388	    175.26544240	      0.04321598	      0.92570453	     -0.67817344	     -9.32724473	      4.95177461	     -7.13795153	    -20.60938810	     17.47892351	     11.78928035	     35.10075172	    -11.77343893	    -10.39646372	    -17.03272812	      7.42326581	     -6.97967428	     -1.78222742	      6.30249468	      1.13202162
      3.78000000	      3.01630902	      9.61603467	    175.28311177	      0.03207476	      0.92451352	     -0.67631623	     -9.53498261	      4.54535118	     -6.77989670	    -21.30437533	     17.04832981	     12.64958283	     35.15799037	    -11.69937369	    -10.82085127	    -17.97286334	      7.03329805	     -7.21083283	     -1.56732128	      6.08996572	      1.30098688
      3.79000000	      3.10823505	      9.44770303	    175.34343471	      0.02078331	      0.92343190	     -0.67420061	     -9.65901568	      4.10475555	     -6.40741487	    -22.07562785	     16.48489479	     13.56225513	     35.22601222	    -11.55040834	    -11.18148932	    -18.96306109	      6.39158473	     -7.48150739	     -1.30398865	      5.84409257	      1.40211599
      3.80000000	      3.23216491	      9.24232737	    175.46281033	      0.00938361	      0.92248022	     -0.67181241	     -9.68238864	      3.63115111	     -6.04361241	    -22.94211838	     15.79731073	     14.45787887	     35.33356319	    -11.31764949	    -11.44942799	    -19.98982313	      5.52589354	     -7.75811241	     -0.99379971	      5.55950559	      1.44449437
      3.81000000	      3.37847366	      8.99887852	    175.65893301	     -0.00207289	      0.92170533	     -0.66913794	     -9.59199476	      3.12846141	     -5.69958701	    -23.93231850	     14.96073213	     15.32986312	     35.47897739	    -10.98407307	    -11.56652113	    -21.02029673	      4.50271420	     -7.99755008	     -0.65397052	      5.23385195	      1.40829354
      3.82000000	      3.52696147	      8.72153516	    175.94808614	     -0.01355540	      0.92115264	     -0.66615485	     -9.38838760	      2.60240030	     -5.39619629	    -25.07334083	     13.95578245	     16.15904964	     35.65009237	    -10.53558445	    -11.48211486	    -22.04923533	      3.43357147	     -8.15840804	     -0.31147673	      4.87161964	      1.28775301
      3.83000000	      3.65898349	      8.41568352	    176.33259425	     -0.02504781	      0.92085442	     -0.66288488	     -9.07316353	      2.05593376	     -5.15956441	    -26.38795646	     12.77533619	     16.91637955	     35.82706630	     -9.96778778	    -11.17159292	    -23.08245094	      2.42644529	     -8.23326392	      0.00981481	      4.47302199	      1.09197207
      3.84000000	      3.73718967	      8.08504604	    176.82310710	     -0.03654418	      0.92083981	     -0.65931390	     -8.66880949	      1.48766890	     -5.03171635	    -27.90135373	     11.40773777	     17.41014272	     35.96435855	     -9.27300035	    -10.64929169	    -24.12188272	      1.56000376	     -8.23064950	      0.26546147	      4.04346447	      0.83460762
      3.85000000	      3.79442987	      7.79096663	    177.37671433	     -0.04801760	      0.92106415	     -0.65553158	     -8.13788917	      0.96790122	     -4.89863521	    -29.61039313	      9.84463221	     18.06716665	     36.08967188	     -8.54038564	     -9.98264428	    -25.17753410	      0.90155707	     -8.30973081	      0.48640964	      3.65814973	      0.52294476
      3.86000000	      3.75041950	      7.48739202	    178.01141937	     -0.05946329	      0.92160080	     -0.65152868	     -7.55044837	      0.43789274	     -4.85717531	    -31.53600541	      8.11993523	     18.38762416	     36.06923797	     -7.71630716	     -9.21010751	    -26.17504943	      0.40764533	     -8.37332060	      0.58406695	      3.25676605	      0.18745772
      3.87000000	      3.70839953	      7.25560176	    178.67778942	     -0.07080864	      0.92222676	     -0.64740482	     -6.77834460	     -0.01981032	     -4.84575378	    -33.70464572	      6.26291692	     18.69301679	     36.04580948	     -6.92744101	     -8.41183435	    -27.17924768	      0.17624342	     -8.63080217	      0.67038097	      2.94036488	     -0.12267460
      3.88000000	      3.61442601	      7.05260538	    179.37222750	     -0.08203865	      0.92302571	     -0.64316245	     -5.89302748	     -0.44385746	     -4.84036646	    -36.08003628	      4.28855040	     18.74668031	     35.89792597	     -6.13846026	     -7.63990874	    -28.08368509	      0.10580465	     -9.00070647	      0.68691662	      2.66095111	     -0.42606954
      3.89000000	      3.50475189	      6.87684895	    180.07568283	     -0.09311757	      0.92387712	     -0.63882448	     -4.85909244	     -0.84108972	     -4.83620912	    -38.65159163	      2.25214528	     18.57471652	     35.66431774	     -5.37129692	     -6.94434471	    -28.89509933	      0.26481664	     -9.43118345	      0.67661344	      2.42184826	     -0.71647203
